<svg xmlns="http://www.w3.org/2000/svg" viewBox="0 0 100 100">
  <!-- Pasta base -->
  <path d="M10 25 L40 25 L45 20 L90 20 L90 80 L10 80 Z" fill="#FFB74D"/>
  
  <!-- Sombra da pasta -->
  <path d="M10 25 L90 25 L90 80 L10 80 Z" fill="#FFA726"/>
  
  <!-- Documentos dentro da pasta -->
  <rect x="20" y="35" width="30" height="35" fill="#FFFFFF" rx="2"/>
  <rect x="25" y="40" width="20" height="2" fill="#90CAF9"/>
  <rect x="25" y="45" width="15" height="2" fill="#90CAF9"/>
  <rect x="25" y="50" width="18" height="2" fill="#90CAF9"/>
  
  <!-- Imagem representativa -->
  <rect x="55" y="35" width="25" height="20" fill="#81C784" rx="2"/>
  <circle cx="62" cy="42" r="3" fill="#FFFFFF"/>
  <path d="M55 50 L65 45 L80 55 L80 55 L55 55 Z" fill="#FFFFFF"/>
  
  <!-- Clip ou grampo -->
  <path d="M35 33 L40 33 L40 38 L35 38 Z" fill="#BDBDBD"/>
</svg>